<?xml version="1.0" standalone="no"?><!DOCTYPE svg PUBLIC "-//W3C//DTD SVG 1.1//EN" "http://www.w3.org/Graphics/SVG/1.1/DTD/svg11.dtd"><svg t="1551786650846" class="icon" style="" viewBox="0 0 1024 1024" version="1.1" xmlns="http://www.w3.org/2000/svg" p-id="2162" xmlns:xlink="http://www.w3.org/1999/xlink" width="200" height="200"><defs><style type="text/css"></style></defs><path d="M512 102.4c-226.215 0-409.6 183.385-409.6 409.6s183.385 409.6 409.6 409.6 409.6-183.385 409.6-409.6-183.385-409.6-409.6-409.6zM512 858.562c-191.42 0-346.59-155.164-346.59-346.562 0-191.42 155.17-346.59 346.59-346.59 7.708 0 15.292 0.662 22.897 1.161-35.095 5.004-151.785 33.013-211.948 187.89 0 10.015 1.905 53.003 0 63.004-1.911 10.015-1.911 53.003 0 63.010 1.905 10.021 31.511 31.525 31.511 31.525l34.366-6.014c0 0 1.905 26.037 11.469 36.051 9.53 10.029-5.734 22.044-5.734 22.044s-7.652 36.065-5.734 50.094c1.905 14.015 7.639 48.080 13.374 56.095 5.714 7.994 43.923 26.050 43.923 26.050s20.998 14.015 20.998 24.030 7.626 24.050 13.36 34.065 34.386 32.037 32.475 50.080c-1.911 18.029 6.355 14.015 12.090 30.037 4.642 12.985 13.237 18.426 25.082 21.839-12.555 1.372-25.245 2.191-38.127 2.191zM559.985 854.855c3.734-11.428 15.067-47.943 10.24-56.388-5.734-10.015-15.264-32.037-15.264-32.037l1.905-34.065c0 0 5.721-14.015 15.278-22.030 9.543-8.028 13.346-14.015 20.998-30.051 7.639-16.029 19.094-40.052 20.998-50.094 1.905-10.015 67.789-38.065 52.517-54.081-15.292-16.029-47.746-28.064-61.092-32.065-13.387-4.014-83.081-2-86.903-18.029-3.803-16.022-36.27-10.015-47.746-4-11.441 6.001-47.712 18.016-51.535 4-3.829-14.015 4.772-36.065 2.867-46.080-3.829 16.022-1.918-10.015 0 0 3.823-16.022-16.254-26.030-31.519-18.022s-8.602-8.007 0.962-14.022c9.551-6.028 33.403-36.065 37.226-26.050 3.823 10.035 28.644 4 36.29 2 7.618-2 19.094-8.007 22.91 12.015 3.803 20.057 38.181 42.080 38.181 34.065 0-8.007 7.652-36.038 1.918-48.080-5.734-12.015-11.455-22.030-11.455-22.030s29.587 0 39.145-22.050c25.321-58.498 49.65 6.014 39.131-48.080 3.413 17.565 42.96-44.080 23.866-52.087-19.081-8.007-0.949-47.076-46.777-51.084-45.841-4-66.839 11.039-66.839 11.039l3.829 14.015c0 0 3.823 4.007 3.823 12.015s-26.74 6.007-26.74 6.007-5.734-12.015-3.823-20.022 7.646-22.050 7.646-22.050l15.285-22.030c0 0 5.734 0 17.189 4.007 11.469 4.007 32.467-2 32.467-2l-9.175-40.366c133.482 12.923 244.627 101.601 290.318 222.453-21.237 5.686-52.613 20.508-72.055 59.386-31.505 63.038-94.522 0-94.522 0s94.522 157.559 157.532 94.535c13.175-13.175 23.081-24.719 31.321-35.43 0.014 1.317 0.171 2.622 0.171 3.939 0.006 175.070-129.932 319.434-298.571 342.849z" p-id="2163" fill="#707070"></path></svg>